{"glyphs":{":":{"x_min":0,"x_max":333,"ha":333,"o":"m 94 358 q 94 388 116 410 q 137 431 167 431 q 197 431 218 410 q 239 388 239 358 q 239 327 218 306 q 197 285 167 285 q 136 285 115 306 q 94 327 94 358 z m 94 68 q 94 98 115 119 q 137 140 167 140 q 197 140 218 119 q 239 98 239 68 q 239 37 218 16 q 197 -5 167 -5 q 136 -5 115 16 q 94 37 94 68 z"},"$":{"x_min":0,"x_max":532,"ha":532,"o":"m 218 424 q 235 419 253 414 q 272 410 292 406 l 292 646 q 277 648 264 650 q 252 651 241 651 q 231 651 227 651 q 222 650 218 650 z m 197 429 l 197 647 q 155 631 135 603 q 114 574 114 532 q 114 493 136 466 q 158 438 197 429 z m 313 10 q 361 19 388 53 q 416 87 416 138 q 416 186 390 217 q 364 248 313 261 z m 218 17 q 231 12 246 9 q 262 6 278 6 q 280 6 285 6 q 290 7 292 7 l 292 268 q 275 271 240 278 q 225 281 218 282 z m 197 0 q 186 4 167 11 q 110 31 94 31 q 77 31 68 24 q 59 17 56 0 l 40 0 l 40 241 l 55 241 q 60 167 96 112 q 132 57 197 24 l 197 288 q 116 309 76 354 q 36 400 36 472 q 36 544 80 596 q 124 648 197 663 l 197 741 l 218 741 l 218 665 q 223 666 227 666 q 231 666 241 666 q 252 666 264 665 q 276 664 292 661 l 292 741 l 313 741 l 313 656 q 326 649 348 637 q 382 618 396 618 q 412 618 422 628 q 431 639 431 657 l 431 660 l 446 660 l 446 454 l 432 454 q 411 530 383 573 q 355 617 313 638 l 313 401 q 405 380 448 334 q 491 288 491 210 q 491 119 445 62 q 398 5 313 -6 l 313 -164 l 292 -164 l 292 -8 q 289 -8 284 -9 q 280 -9 272 -9 q 258 -9 244 -7 q 231 -6 218 -3 l 218 -164 l 197 -164 z"},"?":{"x_min":0,"x_max":500,"ha":500,"o":"m 201 171 l 187 171 l 187 349 q 187 387 241 428 l 243 429 q 296 470 317 500 q 338 531 338 566 q 338 611 307 639 q 276 667 227 667 q 192 667 170 654 q 147 641 147 622 q 147 614 167 609 q 179 605 186 603 q 208 594 220 578 q 231 562 231 539 q 231 512 212 495 q 193 477 164 477 q 130 477 107 501 q 84 525 84 562 q 84 614 127 648 q 171 683 238 683 q 316 683 363 635 q 410 588 410 509 q 410 467 398 436 q 386 404 356 367 q 336 344 286 304 q 266 289 256 280 q 225 253 213 231 q 201 208 201 180 z m 125 61 q 125 91 146 111 q 167 132 197 132 q 227 132 248 111 q 269 91 269 61 q 269 30 248 9 q 227 -12 197 -12 q 167 -12 146 9 q 125 30 125 61 z"},"<":{"x_min":0,"x_max":833,"ha":833,"o":"m 704 484 l 248 298 l 704 112 l 704 23 l 129 259 l 129 337 l 704 574 z"},"'":{"x_min":0,"x_max":175,"ha":175,"o":"m 78 418 l 42 642 q 42 646 41 650 q 41 654 41 661 q 41 687 53 700 q 65 714 87 714 q 110 714 122 700 q 134 687 134 661 q 134 653 134 649 q 133 645 133 642 l 97 418 z"},"=":{"x_min":0,"x_max":833,"ha":833,"o":"m 709 238 l 709 157 l 124 157 l 124 238 z m 709 440 l 709 358 l 124 358 l 124 440 z"},"a":{"x_min":0,"x_max":491,"ha":491,"o":"m 297 229 l 288 229 q 202 229 175 209 q 148 188 148 126 q 148 65 164 39 q 180 13 216 13 q 256 13 277 42 q 297 70 297 127 z m 423 104 q 423 64 429 49 q 436 34 452 34 q 463 34 472 46 q 481 58 487 81 l 500 81 q 496 41 468 15 q 439 -11 399 -11 q 360 -11 336 5 q 312 21 301 53 q 286 21 257 4 q 227 -12 184 -12 q 101 -12 56 19 q 11 51 11 109 q 11 178 82 211 q 153 245 297 245 l 297 304 q 297 375 278 395 q 259 415 204 415 q 172 415 149 406 q 126 396 126 385 q 126 381 139 373 q 152 365 159 359 q 167 352 170 343 q 174 334 174 322 q 174 297 159 283 q 144 269 117 269 q 87 269 71 284 q 54 300 54 328 q 54 374 100 403 q 146 431 224 431 q 268 431 304 422 q 341 414 369 396 q 399 377 411 353 q 423 329 423 278 z"},"L":{"x_min":0,"x_max":611,"ha":611,"o":"m 14 0 l 14 15 l 93 15 l 93 652 l 14 652 l 14 667 l 322 667 l 322 652 l 241 652 l 241 15 l 336 15 q 449 15 503 66 q 557 117 558 223 l 573 223 l 573 0 z"},"3":{"x_min":0,"x_max":532,"ha":532,"o":"m 126 358 l 126 373 l 140 373 q 251 373 289 404 q 327 435 327 523 q 327 587 302 620 q 276 654 228 654 q 186 654 153 636 q 120 618 120 600 q 120 587 144 585 q 154 584 159 583 q 180 579 192 564 q 204 548 204 525 q 204 496 184 476 q 164 456 134 456 q 103 456 84 477 q 66 498 66 535 q 66 595 115 632 q 163 669 243 669 q 333 669 394 624 q 455 578 455 514 q 455 457 407 420 q 359 384 265 369 q 371 362 429 314 q 487 266 487 186 q 487 102 414 44 q 341 -14 233 -14 q 139 -14 84 22 q 30 58 30 120 q 30 160 50 184 q 71 208 105 208 q 136 208 156 188 q 175 169 175 138 q 175 117 164 101 q 152 85 133 78 q 127 76 115 74 q 86 68 86 54 q 86 35 122 20 q 159 5 211 5 q 284 5 316 43 q 348 82 348 169 q 348 244 336 282 q 324 321 296 337 q 276 348 248 353 q 220 358 170 358 z"},";":{"x_min":0,"x_max":333,"ha":333,"o":"m 109 -154 l 103 -141 q 160 -123 189 -85 q 219 -47 219 6 l 219 19 q 208 6 196 0 q 184 -6 168 -6 q 132 -6 111 15 q 89 35 89 69 q 89 101 109 121 q 130 141 162 141 q 202 141 224 113 q 246 84 246 31 q 246 -40 210 -88 q 175 -136 109 -154 z m 94 358 q 94 388 116 410 q 137 431 167 431 q 197 431 218 410 q 239 388 239 358 q 239 327 218 306 q 197 285 167 285 q 136 285 115 306 q 94 327 94 358 z"},"J":{"x_min":0,"x_max":389,"ha":389,"o":"m 154 652 l 66 652 l 66 667 l 381 667 l 381 652 l 302 652 l 302 139 q 302 27 253 -29 q 205 -86 110 -86 q 54 -86 20 -58 q -15 -31 -15 13 q -15 43 2 62 q 20 81 48 81 q 77 81 92 64 q 108 48 108 18 q 108 -11 82 -28 q 56 -45 56 -46 q 56 -56 69 -63 q 82 -71 101 -71 q 131 -71 142 -49 q 154 -27 154 51 z"},"V":{"x_min":0,"x_max":579,"ha":579,"o":"m 306 -16 l 277 -16 l 32 652 l -37 652 l -37 667 l 272 667 l 272 652 l 189 652 l 360 188 l 481 518 q 491 544 496 567 q 502 590 502 603 q 502 628 486 639 q 469 651 432 652 l 432 667 l 609 667 l 609 652 q 578 651 559 632 q 540 614 520 560 z"},"\"":{"x_min":0,"x_max":339,"ha":339,"o":"m 242 418 l 206 642 q 206 646 205 650 q 205 654 205 661 q 205 686 218 700 q 230 714 252 714 q 274 714 286 700 q 299 687 299 662 q 299 656 297 645 q 297 643 297 642 l 261 418 z m 78 418 l 42 642 q 42 646 41 650 q 41 654 41 661 q 41 687 53 700 q 65 714 87 714 q 110 714 122 700 q 134 687 134 661 q 134 653 134 649 q 133 645 133 642 l 97 418 z"},"7":{"x_min":0,"x_max":532,"ha":532,"o":"m 66 464 l 53 464 q 66 510 73 558 q 81 605 83 655 l 509 655 l 509 622 q 402 457 334 315 q 266 174 266 132 q 266 113 296 107 q 307 105 312 103 q 327 98 337 83 q 346 67 346 48 q 346 21 329 3 q 312 -14 287 -14 q 257 -14 238 8 q 218 30 218 64 q 218 98 265 205 q 277 231 283 245 q 326 344 349 410 q 371 475 382 531 l 84 531 q 80 515 76 498 q 71 482 66 464 z"},"S":{"x_min":0,"x_max":556,"ha":556,"o":"m 50 -2 l 46 247 l 61 247 q 86 133 149 66 q 211 -1 291 -1 q 347 -1 384 36 q 421 73 421 128 q 421 166 407 191 q 394 216 362 236 q 342 249 279 262 q 245 269 226 274 q 129 299 85 348 q 41 396 41 479 q 41 565 99 624 q 157 683 243 683 q 270 683 295 677 q 321 670 346 657 q 355 652 372 642 q 404 623 420 623 q 433 623 439 631 q 446 639 450 660 l 465 660 l 465 453 l 450 453 q 430 554 379 609 q 329 665 259 665 q 202 665 165 631 q 128 597 128 544 q 128 515 140 494 q 152 474 177 458 q 198 445 261 433 q 290 427 306 423 q 420 397 465 348 q 510 299 510 203 q 510 104 450 44 q 391 -16 293 -16 q 228 -16 164 10 q 100 36 97 36 q 82 36 74 27 q 66 17 65 -3 z"},"}":{"x_min":0,"x_max":500,"ha":500,"o":"m 281 571 l 281 473 q 281 394 309 364 q 336 334 414 327 l 414 294 q 337 288 309 258 q 281 228 281 148 l 281 50 q 281 -46 240 -83 q 199 -119 90 -119 l 85 -119 l 85 -91 q 148 -90 171 -65 q 194 -40 194 37 l 194 104 q 194 215 221 255 q 249 294 323 310 q 250 326 222 365 q 194 405 194 516 l 194 583 q 194 660 171 686 q 147 711 85 712 l 85 740 l 90 740 q 199 740 240 704 q 281 667 281 571 z"},"Z":{"x_min":0,"x_max":611,"ha":611,"o":"m 12 0 l 12 15 l 397 652 l 268 652 q 174 652 122 605 q 70 559 59 464 l 44 464 l 58 667 l 565 667 l 565 652 l 181 15 l 328 15 q 442 15 497 65 q 551 115 559 226 l 574 226 l 565 0 z"},"x":{"x_min":0,"x_max":500,"ha":500,"o":"m 6 0 l 6 15 q 42 21 72 40 q 102 59 127 92 l 191 177 l 46 404 l 6 404 l 6 419 l 247 419 l 247 404 l 203 404 l 279 281 l 318 329 q 329 343 335 357 q 341 371 341 383 q 341 395 329 399 q 317 404 285 404 l 285 419 l 453 419 l 453 404 l 448 404 q 423 404 400 389 q 376 374 345 335 l 289 264 l 449 15 l 491 15 l 491 0 l 230 0 l 230 15 l 292 15 l 200 158 l 161 108 q 147 91 140 75 q 133 58 133 45 q 133 29 145 22 q 156 16 193 15 l 193 0 z"},")":{"x_min":0,"x_max":352,"ha":352,"o":"m 40 683 q 151 605 211 488 q 271 370 271 230 q 271 90 211 -27 q 151 -144 40 -222 l 40 -206 q 108 -152 137 -65 q 167 21 167 173 l 167 287 q 167 439 137 526 q 107 613 40 667 z"},"&":{"x_min":0,"x_max":727,"ha":727,"o":"m 209 335 q 170 310 154 287 q 138 264 138 234 q 138 207 150 178 q 162 149 185 121 q 209 92 234 77 q 259 62 285 62 q 307 62 325 73 q 344 84 370 116 z m 311 413 q 355 440 375 469 q 394 497 394 534 q 394 574 372 599 q 349 624 314 624 q 282 624 260 604 q 239 585 239 557 q 239 536 248 512 q 258 489 277 461 z m 702 147 l 716 142 q 686 60 646 22 q 605 -16 547 -16 q 508 -16 470 11 q 431 39 381 103 q 334 40 290 12 q 246 -16 195 -16 q 129 -16 80 35 q 30 86 30 156 q 30 206 68 249 q 107 292 201 347 q 167 397 153 434 q 139 470 139 505 q 139 564 183 604 q 227 644 292 644 q 345 644 377 613 q 410 583 410 534 q 410 494 390 463 q 369 432 321 400 l 448 234 q 489 299 522 323 q 555 348 597 348 q 631 348 652 327 q 672 305 672 269 q 672 238 655 221 q 639 203 610 203 q 582 203 564 219 q 546 234 546 257 q 546 261 547 270 q 549 278 549 284 q 549 290 544 294 q 539 298 532 298 q 518 298 500 277 q 481 256 459 216 l 504 158 q 536 116 566 95 q 596 75 625 75 q 650 75 668 92 q 686 108 702 147 z"},"_":{"x_min":0,"x_max":500,"ha":500,"o":"m 500 -152 l 500 -236 l 0 -236 l 0 -152 z"},"v":{"x_min":0,"x_max":444,"ha":444,"o":"m 232 -12 l 200 -12 l 30 404 l -32 404 l -32 419 l 225 419 l 225 404 l 170 404 l 277 141 l 350 322 q 355 333 357 344 q 360 354 360 363 q 360 385 344 394 q 329 404 292 404 l 292 419 l 461 419 l 461 404 l 457 404 q 428 404 409 385 q 390 365 364 303 z"},"O":{"x_min":0,"x_max":671,"ha":671,"o":"m 190 333 q 190 129 222 64 q 253 -1 336 -1 q 418 -1 449 64 q 481 128 481 333 q 481 538 449 602 q 418 667 336 667 q 253 667 222 602 q 190 537 190 333 z m 30 333 q 30 410 52 471 q 74 531 122 584 q 166 633 220 658 q 273 683 336 683 q 398 683 452 658 q 506 633 550 584 q 597 532 619 471 q 641 411 641 333 q 641 255 619 195 q 597 134 550 82 q 506 33 453 9 q 399 -16 336 -16 q 273 -16 219 9 q 166 33 122 82 q 74 135 52 195 q 30 256 30 333 z"},"(":{"x_min":0,"x_max":352,"ha":352,"o":"m 312 683 l 312 667 q 245 613 215 526 q 185 439 185 287 l 185 173 q 185 21 215 -65 q 244 -152 312 -206 l 312 -222 q 201 -144 141 -27 q 81 90 81 230 q 81 370 141 488 q 201 605 312 683 z"},"C":{"x_min":0,"x_max":611,"ha":611,"o":"m 554 232 l 569 232 l 569 0 l 554 0 q 548 21 540 29 q 532 37 518 37 q 506 37 475 21 q 454 9 442 4 q 419 -6 392 -11 q 365 -16 330 -16 q 280 -16 229 4 q 179 23 140 59 q 83 111 55 178 q 28 244 28 332 q 28 415 54 481 q 81 547 136 600 q 179 642 230 662 q 281 683 340 683 q 391 683 446 660 q 502 637 513 637 q 526 637 534 644 q 542 650 547 666 l 562 666 l 562 446 l 547 446 q 520 550 463 609 q 407 669 338 669 q 259 669 223 588 q 186 508 186 333 q 186 156 224 78 q 261 -1 344 -1 q 416 -1 475 63 q 534 128 554 232 z"},"W":{"x_min":0,"x_max":917,"ha":917,"o":"m 274 -16 l 28 652 l -36 652 l -36 667 l 237 667 l 237 652 l 179 652 l 347 193 l 447 466 l 378 652 l 302 652 l 302 667 l 612 667 l 612 652 l 530 652 l 698 187 l 828 544 q 835 563 840 581 q 844 599 844 607 q 844 631 831 641 q 817 652 787 652 l 778 652 l 778 667 l 942 667 l 942 652 q 911 646 894 630 q 877 615 863 576 l 648 -16 l 627 -16 l 458 432 l 294 -16 z"},"A":{"x_min":0,"x_max":551,"ha":551,"o":"m 123 229 l 295 229 l 209 472 z m 118 214 l 77 104 q 72 90 69 76 q 66 62 66 52 q 66 36 80 28 q 93 20 131 15 l 131 0 l -46 0 l -46 15 q -4 17 18 37 q 40 57 61 116 l 262 683 l 275 683 l 531 15 l 593 15 l 593 0 l 295 0 l 295 15 l 372 15 l 301 214 z"},"f":{"x_min":0,"x_max":282,"ha":282,"o":"m 16 404 l 16 419 l 74 419 l 74 434 q 74 566 116 626 q 157 687 248 687 q 300 687 330 662 q 360 637 360 594 q 360 565 343 547 q 327 529 300 529 q 273 529 255 545 q 238 562 238 587 q 238 601 243 613 q 249 624 259 633 q 268 640 282 644 q 297 647 297 651 q 297 658 288 664 q 279 670 267 670 q 233 670 219 643 q 206 616 206 542 l 206 419 l 266 419 l 266 404 l 206 404 l 206 15 l 264 15 l 264 0 l 16 0 l 16 15 l 74 15 l 74 404 z"},"Q":{"x_min":0,"x_max":671,"ha":671,"o":"m 190 333 q 190 129 222 64 q 253 -1 336 -1 q 418 -1 449 64 q 481 128 481 333 q 481 538 449 602 q 418 667 336 667 q 253 667 222 602 q 190 537 190 333 z m 266 -9 q 153 28 92 117 q 30 207 30 333 q 30 410 52 471 q 74 531 122 584 q 166 633 220 658 q 273 683 336 683 q 398 683 452 658 q 506 633 550 584 q 597 532 619 471 q 641 411 641 333 q 641 203 576 111 q 510 20 397 -10 l 396 -59 l 396 -73 q 396 -141 415 -168 q 435 -195 480 -195 q 495 -195 511 -189 q 528 -184 547 -173 l 553 -185 q 529 -200 500 -208 q 471 -215 434 -215 q 344 -215 304 -180 q 265 -145 265 -63 l 265 -56 z"},"w":{"x_min":0,"x_max":722,"ha":722,"o":"m 238 -12 l 212 -12 l 40 404 l 6 404 l 6 419 l 233 419 l 233 404 l 176 404 l 287 142 l 349 286 l 299 404 l 264 404 l 264 419 l 494 419 l 494 404 l 440 404 l 547 140 l 620 309 q 626 323 629 335 q 632 348 632 357 q 632 383 618 394 q 604 404 567 404 l 567 419 l 719 419 l 719 404 q 698 400 681 382 q 665 363 641 309 l 499 -12 l 473 -12 l 358 264 z"},"-":{"x_min":0,"x_max":444,"ha":444,"o":"m 84 169 l 84 250 l 361 250 l 361 169 z"},"E":{"x_min":0,"x_max":611,"ha":611,"o":"m 14 0 l 14 15 l 93 15 l 93 652 l 14 652 l 14 667 l 542 667 l 542 484 l 529 484 q 519 576 476 614 q 433 652 334 652 l 241 652 l 241 360 l 296 360 q 344 360 370 394 q 397 427 397 488 l 397 497 l 412 497 l 412 208 l 397 208 l 397 217 q 397 278 370 312 q 344 345 296 345 l 241 345 l 241 15 l 338 15 q 454 15 504 62 q 555 108 556 214 l 571 214 l 571 0 z"},"s":{"x_min":0,"x_max":389,"ha":389,"o":"m 38 -11 l 38 145 l 53 145 q 86 72 125 37 q 164 3 214 3 q 253 3 277 25 q 301 47 301 84 q 301 132 204 147 q 184 150 172 152 q 100 165 68 195 q 36 225 36 281 q 36 343 78 387 q 120 431 181 431 q 211 431 247 420 q 282 408 285 408 q 294 408 301 413 q 308 418 312 428 l 328 428 l 328 294 l 312 294 q 292 355 259 385 q 225 415 176 415 q 139 415 114 394 q 89 373 89 342 q 89 328 96 315 q 104 303 117 295 q 131 286 176 282 q 221 279 245 273 q 306 259 332 229 q 359 198 359 144 q 359 74 316 31 q 273 -12 203 -12 q 180 -12 145 -1 q 109 10 95 10 q 79 10 68 5 q 58 0 53 -11 z"},">":{"x_min":0,"x_max":833,"ha":833,"o":"m 704 337 l 704 259 l 129 23 l 129 112 l 585 298 l 129 484 l 129 574 z"},"l":{"x_min":0,"x_max":278,"ha":278,"o":"m 74 652 l 22 652 l 22 667 l 100 667 q 139 667 163 670 q 186 672 206 678 l 206 15 l 264 15 l 264 0 l 16 0 l 16 15 l 74 15 z"},"8":{"x_min":0,"x_max":532,"ha":532,"o":"m 262 361 q 307 380 324 408 q 341 437 341 525 q 341 594 322 624 q 304 654 261 654 q 219 654 201 625 q 183 597 183 528 q 183 429 200 401 q 217 372 262 361 z m 264 344 q 211 328 188 286 q 165 244 165 162 q 165 75 186 37 q 208 -1 255 -1 q 308 -1 335 38 q 362 77 362 154 q 362 245 340 286 q 318 327 264 344 z m 236 352 q 153 373 108 414 q 62 456 62 511 q 62 581 117 625 q 173 669 261 669 q 349 669 405 625 q 462 582 462 517 q 462 462 417 420 q 371 377 286 354 q 382 333 435 284 q 488 236 488 170 q 488 92 423 39 q 358 -14 263 -14 q 164 -14 99 35 q 34 85 34 159 q 34 229 86 279 q 139 329 236 352 z"},"\\":{"x_min":0,"x_max":278,"ha":278,"o":"m 305 -93 l 275 -93 l 0 676 l 30 676 z"},"e":{"x_min":0,"x_max":444,"ha":444,"o":"m 282 245 l 282 315 q 282 375 269 396 q 256 416 221 416 q 188 416 175 393 q 162 371 162 306 l 162 245 z m 420 230 l 162 230 l 162 159 q 162 81 187 45 q 211 10 265 10 q 318 10 357 47 q 396 85 414 152 l 429 152 q 414 75 365 31 q 316 -12 244 -12 q 147 -12 85 51 q 23 113 23 211 q 23 301 84 366 q 146 431 232 431 q 311 431 364 375 q 417 318 420 230 z"},"b":{"x_min":0,"x_max":551,"ha":551,"o":"m 69 652 l 12 652 l 12 667 l 90 667 q 127 667 153 670 q 179 672 201 678 l 201 356 q 221 392 251 411 q 281 430 318 430 q 408 430 468 368 q 528 306 528 213 q 528 120 468 54 q 409 -12 325 -12 q 282 -12 249 9 q 216 29 195 69 l 195 -12 q 174 -6 149 -3 q 125 0 90 0 l 12 0 l 12 15 l 69 15 z m 201 291 l 201 151 q 201 83 228 46 q 254 9 303 9 q 349 9 368 50 q 387 92 387 201 q 387 324 369 367 q 350 410 304 410 q 264 410 233 374 q 201 338 201 291 z"},"%":{"x_min":0,"x_max":759,"ha":759,"o":"m 589 8 q 621 8 633 43 q 645 78 645 178 q 645 279 633 314 q 620 349 589 349 q 558 349 545 314 q 533 278 533 178 q 533 78 545 43 q 558 8 589 8 z m 447 178 q 447 258 488 312 q 530 366 589 366 q 649 366 690 312 q 731 258 731 178 q 731 98 690 44 q 649 -9 589 -9 q 529 -9 488 45 q 447 98 447 178 z m 171 306 q 203 306 215 342 q 228 378 228 477 q 228 576 215 611 q 203 647 171 647 q 140 647 127 612 q 115 577 115 477 q 115 376 127 341 q 140 306 171 306 z m 29 477 q 29 557 70 611 q 111 664 171 664 q 231 664 272 611 q 314 557 314 477 q 314 397 272 343 q 231 289 171 289 q 112 289 70 343 q 29 397 29 477 z m 208 -14 l 176 -14 l 555 669 l 588 669 z"},"m":{"x_min":0,"x_max":829,"ha":829,"o":"m 578 0 l 578 15 l 632 15 l 632 327 q 632 369 621 384 q 610 400 583 400 q 539 400 509 364 q 480 327 480 270 l 480 15 l 534 15 l 534 0 l 296 0 l 296 15 l 351 15 l 351 327 q 351 369 340 384 q 329 400 302 400 q 258 400 229 364 q 199 327 199 270 l 199 15 l 253 15 l 253 0 l 13 0 l 13 15 l 69 15 l 69 404 l 13 404 l 13 419 l 89 419 q 122 419 147 422 q 173 425 193 431 l 193 338 q 219 384 257 408 q 295 431 344 431 q 397 431 433 406 q 468 381 476 339 q 501 384 539 408 q 577 431 625 431 q 688 431 725 398 q 762 364 762 306 l 762 15 l 816 15 l 816 0 z"},"#":{"x_min":0,"x_max":769,"ha":769,"o":"m 477 419 l 343 419 l 297 290 l 431 290 z m 449 713 l 373 500 l 504 500 l 580 713 l 669 713 l 593 500 l 735 500 l 706 419 l 564 419 l 519 291 l 669 291 l 640 209 l 490 209 l 415 -3 l 325 -3 l 401 209 l 270 209 l 195 -3 l 105 -3 l 181 209 l 34 209 l 63 291 l 210 291 l 255 419 l 99 419 l 129 500 l 284 500 l 360 713 z"},",":{"x_min":0,"x_max":266,"ha":266,"o":"m 75 -154 l 69 -141 q 126 -123 156 -85 q 186 -47 186 7 l 186 19 q 176 6 163 0 q 150 -6 134 -6 q 98 -6 77 15 q 55 35 55 69 q 55 101 76 121 q 97 141 129 141 q 169 141 191 113 q 213 84 213 31 q 213 -40 177 -88 q 141 -136 75 -154 z"},"n":{"x_min":0,"x_max":556,"ha":556,"o":"m 201 15 l 257 15 l 257 0 l 12 0 l 12 15 l 69 15 l 69 404 l 12 404 l 12 419 l 90 419 q 125 419 149 422 q 174 425 195 431 l 195 338 q 222 384 261 407 q 301 431 350 431 q 415 431 451 398 q 488 364 488 306 l 488 15 l 544 15 l 544 0 l 301 0 l 301 15 l 356 15 l 356 327 q 356 369 345 384 q 333 400 306 400 q 261 400 231 364 q 201 327 201 270 z"},"h":{"x_min":0,"x_max":556,"ha":556,"o":"m 201 15 l 257 15 l 257 0 l 12 0 l 12 15 l 69 15 l 69 652 l 12 652 l 12 667 l 90 667 q 129 667 152 670 q 175 672 195 678 l 195 338 q 222 384 261 407 q 301 431 350 431 q 415 431 451 398 q 488 364 488 306 l 488 15 l 544 15 l 544 0 l 301 0 l 301 15 l 356 15 l 356 327 q 356 369 345 384 q 333 400 306 400 q 261 400 231 364 q 201 327 201 270 z"},"z":{"x_min":0,"x_max":444,"ha":444,"o":"m 19 0 l 19 15 l 271 404 l 229 404 q 157 404 112 363 q 66 322 56 247 l 41 247 l 41 419 l 416 419 l 416 404 l 165 15 l 214 15 q 294 15 339 60 q 385 105 391 190 l 406 190 l 406 0 z"},"B":{"x_min":0,"x_max":611,"ha":611,"o":"m 241 360 l 276 360 q 348 360 379 394 q 410 428 410 506 q 410 580 377 616 q 344 652 276 652 l 241 652 z m 241 15 l 293 15 q 360 15 397 57 q 434 98 434 173 q 434 265 397 305 q 361 345 276 345 l 241 345 z m 14 0 l 14 15 l 93 15 l 93 652 l 14 652 l 14 667 l 291 667 q 418 667 485 627 q 551 587 551 510 q 551 451 506 413 q 461 375 376 362 l 376 357 q 480 347 535 301 q 589 255 589 178 q 589 96 520 48 q 451 0 332 0 z"},"K":{"x_min":0,"x_max":648,"ha":648,"o":"m 241 330 l 241 15 l 319 15 l 319 0 l 14 0 l 14 15 l 93 15 l 93 652 l 14 652 l 14 667 l 319 667 l 319 652 l 241 652 l 241 357 l 463 574 q 485 595 493 606 q 501 618 501 627 q 501 640 489 646 q 477 652 451 652 l 438 652 l 438 667 l 681 667 l 681 652 q 678 652 673 652 q 667 653 664 653 q 617 653 573 630 q 528 607 477 557 l 366 448 l 644 15 l 712 15 l 712 0 l 398 0 l 398 15 l 466 15 l 259 347 z"},"R":{"x_min":0,"x_max":667,"ha":667,"o":"m 241 359 l 296 359 q 365 359 397 395 q 429 431 429 510 q 429 589 398 621 q 367 652 288 652 l 241 652 z m 241 15 l 329 15 l 329 0 l 14 0 l 14 15 l 93 15 l 93 652 l 14 652 l 14 667 l 322 667 q 449 667 515 627 q 581 588 581 511 q 581 445 532 407 q 484 370 380 355 l 380 350 q 473 342 520 297 q 566 252 571 166 q 572 152 573 127 q 578 19 625 19 q 630 19 638 21 q 646 24 656 29 l 662 18 q 636 1 608 -8 q 580 -16 549 -16 q 519 -16 495 -4 q 470 7 453 30 q 427 65 423 161 q 423 186 422 200 q 417 283 383 314 q 349 345 267 345 q 263 345 254 345 q 246 344 241 344 z"},"T":{"x_min":0,"x_max":616,"ha":616,"o":"m 150 0 l 150 15 l 234 15 l 234 652 l 217 652 q 132 652 83 603 q 34 554 27 462 l 12 462 l 18 667 l 598 667 l 604 462 l 589 462 q 582 554 533 603 q 484 652 399 652 l 382 652 l 382 15 l 465 15 l 465 0 z"},"P":{"x_min":0,"x_max":611,"ha":611,"o":"m 241 315 l 296 315 q 381 315 411 350 q 442 385 442 483 q 442 581 411 616 q 380 652 296 652 l 241 652 z m 241 15 l 329 15 l 329 0 l 14 0 l 14 15 l 93 15 l 93 652 l 14 652 l 14 667 l 283 667 q 374 667 416 662 q 458 657 484 646 q 540 622 566 583 q 593 544 593 486 q 593 393 524 346 q 455 300 316 300 l 241 300 z"},"|":{"x_min":0,"x_max":500,"ha":500,"o":"m 294 764 l 294 -236 l 207 -236 l 207 764 z"},"t":{"x_min":0,"x_max":296,"ha":296,"o":"m 12 419 l 14 419 q 79 419 123 470 q 167 521 182 615 l 197 615 l 197 419 l 287 419 l 287 404 l 197 404 l 197 89 q 197 54 204 40 q 212 25 229 25 q 245 25 259 35 q 273 46 284 65 l 297 57 q 280 25 247 6 q 215 -12 175 -12 q 115 -12 90 20 q 65 51 65 132 l 65 404 l 12 404 z"},"M":{"x_min":0,"x_max":833,"ha":833,"o":"m 4 0 l 4 15 q 52 16 70 33 q 87 50 87 114 l 87 652 l 8 652 l 8 667 l 254 667 l 422 210 l 585 667 l 819 667 l 819 652 l 741 652 l 741 15 l 819 15 l 819 0 l 514 0 l 514 15 l 593 15 l 593 629 l 372 0 l 341 0 l 109 647 l 109 114 q 109 50 126 33 q 143 17 192 15 l 192 0 z"},"g":{"x_min":0,"x_max":444,"ha":444,"o":"m 149 332 l 149 254 q 149 204 162 187 q 174 170 209 170 q 243 170 256 187 q 268 204 268 254 l 268 332 q 268 382 256 399 q 243 416 209 416 q 174 416 162 399 q 149 382 149 332 z m 108 -31 q 84 -48 74 -66 q 64 -83 64 -109 q 64 -168 100 -200 q 137 -233 203 -233 q 273 -233 325 -191 q 378 -148 378 -97 q 378 -62 356 -46 q 333 -31 282 -31 z m 88 -26 q 54 -7 39 16 q 24 40 24 72 q 24 114 48 139 q 71 165 122 175 q 81 198 62 226 q 42 254 42 291 q 42 351 88 391 q 134 431 203 431 q 236 431 265 422 q 295 413 323 395 q 341 418 359 428 q 378 438 401 438 q 431 438 448 423 q 466 407 466 381 q 466 361 454 350 q 443 339 422 339 q 399 339 385 351 q 372 363 372 384 q 372 394 376 403 q 380 413 389 421 q 375 421 362 412 q 350 403 336 384 q 356 361 365 339 q 374 317 374 291 q 374 229 327 192 q 279 155 201 155 q 185 155 170 157 q 155 160 141 165 q 102 158 81 145 q 61 132 61 115 q 61 101 72 94 q 83 87 105 87 l 285 87 q 348 87 380 55 q 411 23 411 -41 q 411 -133 351 -191 q 290 -248 192 -248 q 112 -248 59 -210 q 6 -172 6 -118 q 6 -87 26 -64 q 47 -41 88 -26 z"},"j":{"x_min":0,"x_max":278,"ha":278,"o":"m 74 404 l 16 404 l 16 419 l 94 419 q 128 419 156 422 q 183 425 206 431 l 206 -45 q 206 -146 159 -197 q 112 -248 18 -248 q -32 -248 -59 -231 q -85 -214 -85 -181 q -85 -157 -69 -143 q -53 -128 -27 -128 q 0 -128 16 -144 q 32 -160 32 -187 q 32 -196 26 -208 q 20 -219 20 -224 q 20 -227 21 -229 q 23 -231 25 -231 q 53 -231 63 -207 q 74 -182 74 -112 z m 68 603 q 68 634 89 655 q 110 676 141 676 q 172 676 193 655 q 215 634 215 603 q 215 572 193 550 q 172 528 141 528 q 109 528 89 549 q 68 571 68 603 z"},"i":{"x_min":0,"x_max":278,"ha":278,"o":"m 74 404 l 16 404 l 16 419 l 94 419 q 128 419 156 422 q 183 425 206 431 l 206 15 l 264 15 l 264 0 l 16 0 l 16 15 l 74 15 z m 68 603 q 68 634 89 655 q 110 676 141 676 q 172 676 193 655 q 215 634 215 603 q 215 572 193 550 q 172 528 141 528 q 109 528 89 549 q 68 571 68 603 z"},"y":{"x_min":0,"x_max":500,"ha":500,"o":"m 64 404 l 7 404 l 7 419 l 268 419 l 268 404 l 205 404 l 312 151 l 384 314 q 392 332 396 346 q 400 359 400 366 q 400 385 385 394 q 371 404 342 404 l 334 404 l 334 419 l 496 419 l 496 404 q 467 404 448 386 q 428 369 404 313 l 315 111 q 258 -19 239 -129 q 238 -136 237 -139 q 222 -198 199 -223 q 175 -248 135 -248 q 102 -248 82 -229 q 61 -210 61 -180 q 61 -150 79 -133 q 97 -116 128 -116 q 154 -116 170 -133 q 186 -150 186 -178 q 186 -184 185 -191 q 184 -198 181 -209 q 199 -204 214 -162 q 229 -120 245 -25 z"},"@":{"x_min":0,"x_max":986,"ha":986,"o":"m 637 402 l 662 485 l 746 485 l 662 184 l 661 181 q 654 152 654 137 q 654 113 665 100 q 675 87 694 87 q 710 87 735 98 q 759 108 780 125 q 833 168 862 233 q 891 299 891 378 q 891 514 798 598 q 705 681 552 681 q 467 681 391 649 q 315 618 258 559 q 198 498 168 419 q 138 341 138 245 q 138 161 167 95 q 196 30 255 -19 q 307 -62 375 -85 q 444 -108 523 -108 q 604 -108 680 -83 q 755 -58 828 -6 l 846 -29 q 774 -83 692 -111 q 611 -138 523 -138 q 431 -138 354 -115 q 276 -93 219 -50 q 146 5 107 85 q 68 166 68 262 q 68 361 110 448 q 152 535 232 601 q 298 655 377 683 q 457 711 546 711 q 716 711 818 619 q 920 527 920 374 q 920 296 891 229 q 862 161 809 113 q 779 86 746 73 q 713 59 681 59 q 633 59 607 85 q 580 110 577 159 q 546 108 510 84 q 474 60 429 60 q 364 60 325 105 q 287 150 287 226 q 287 281 311 333 q 335 385 380 428 q 413 460 452 477 q 491 493 531 493 q 575 493 602 470 q 629 447 637 402 z m 610 377 q 610 417 592 442 q 573 466 543 466 q 512 466 486 444 q 460 422 434 372 q 406 320 392 270 q 377 220 377 179 q 377 139 395 114 q 413 90 441 90 q 471 90 497 110 q 523 130 550 175 q 577 222 594 277 q 610 333 610 377 z"},".":{"x_min":0,"x_max":266,"ha":266,"o":"m 61 68 q 61 98 82 119 q 103 140 133 140 q 163 140 184 119 q 205 98 205 68 q 205 37 184 16 q 164 -5 133 -5 q 103 -5 82 16 q 61 37 61 68 z"},"p":{"x_min":0,"x_max":551,"ha":551,"o":"m 201 128 q 201 81 233 45 q 264 9 304 9 q 350 9 369 52 q 387 95 387 218 q 387 328 368 369 q 349 410 303 410 q 254 410 228 373 q 201 336 201 268 z m 201 -226 l 257 -226 l 257 -241 l 12 -241 l 12 -226 l 69 -226 l 69 404 l 12 404 l 12 419 l 90 419 q 125 419 149 422 q 174 425 195 431 l 195 350 q 216 390 249 410 q 282 431 325 431 q 409 431 468 365 q 528 299 528 206 q 528 113 468 51 q 408 -11 318 -11 q 281 -11 251 8 q 221 27 201 63 z"},"X":{"x_min":0,"x_max":625,"ha":625,"o":"m -24 0 l -24 15 l -14 15 q 48 15 115 112 l 117 115 l 253 315 l 58 652 l -11 652 l -11 667 l 294 667 l 294 652 l 225 652 l 345 452 l 415 555 q 431 578 439 596 q 448 614 448 625 q 448 638 435 645 q 421 651 392 652 l 392 667 l 569 667 l 569 652 q 505 652 432 543 l 429 539 l 356 431 l 597 15 l 663 15 l 663 0 l 354 0 l 354 15 l 427 15 l 265 296 l 142 112 q 126 89 118 73 q 111 58 111 48 q 111 31 127 23 q 143 15 176 15 l 188 15 l 188 0 z"},"*":{"x_min":0,"x_max":500,"ha":500,"o":"m 242 465 q 242 495 236 520 q 230 544 218 566 q 209 581 195 602 q 180 623 180 629 q 180 632 182 634 q 185 635 191 635 l 201 635 l 222 633 l 234 665 q 238 675 241 679 q 245 683 249 683 q 252 683 255 680 q 258 678 262 670 l 280 629 l 307 634 l 310 634 q 315 634 317 632 q 319 630 319 626 q 319 622 307 605 q 259 538 259 470 l 259 465 q 327 494 375 557 q 388 574 392 574 q 396 574 398 572 q 400 569 401 563 l 403 538 l 448 537 q 458 537 461 535 q 465 533 465 527 q 465 523 461 517 q 458 512 451 506 l 424 484 l 440 465 q 443 461 444 459 q 445 458 445 456 q 445 453 442 450 q 439 447 436 447 q 429 447 393 455 q 357 463 329 463 q 311 463 295 460 q 279 458 264 452 q 282 427 305 409 q 328 391 363 375 q 372 371 387 366 q 407 359 407 352 q 407 346 399 343 q 396 342 395 341 l 373 331 l 384 295 q 386 287 387 284 q 387 282 387 282 q 387 278 385 275 q 382 272 378 272 q 377 272 375 273 q 372 275 368 277 l 331 300 l 314 283 q 311 280 308 279 q 306 277 303 277 q 293 277 292 303 q 292 316 291 326 q 288 369 279 395 q 270 421 252 445 q 229 418 218 383 q 206 348 206 306 q 206 302 207 295 q 207 288 207 285 q 207 281 204 279 q 202 276 197 276 q 195 276 193 277 q 190 278 186 282 l 166 300 l 139 281 q 134 278 131 276 q 127 275 125 275 q 119 275 115 278 q 112 281 112 286 q 112 287 112 289 q 113 291 115 297 l 125 331 l 103 344 q 98 347 94 352 q 91 356 91 360 q 91 366 113 372 q 124 375 129 376 q 158 384 184 402 q 209 420 237 451 q 212 457 193 459 q 175 462 161 462 q 133 462 104 453 q 75 444 73 444 q 68 444 65 447 q 62 449 62 453 q 62 454 63 456 q 63 458 66 463 l 76 484 l 47 508 q 40 514 38 518 q 35 521 35 525 q 35 530 42 533 q 49 537 59 537 l 94 536 l 99 560 q 99 561 100 562 q 102 573 110 573 q 116 573 126 556 q 137 540 144 531 q 166 506 190 490 q 214 473 242 465 z"},"Y":{"x_min":0,"x_max":574,"ha":574,"o":"m 39 652 l -38 652 l -38 667 l 265 667 l 265 652 l 199 652 l 356 294 l 465 544 l 467 549 q 487 595 487 615 q 487 633 472 643 q 458 652 428 652 l 419 652 l 419 667 l 597 667 l 597 652 q 560 649 540 635 q 521 621 502 578 l 373 283 l 373 15 l 452 15 l 452 0 l 146 0 l 146 15 l 225 15 l 225 235 z"},"c":{"x_min":0,"x_max":444,"ha":444,"o":"m 411 132 l 426 132 q 413 62 368 25 q 323 -12 251 -12 q 154 -12 88 51 q 23 114 23 206 q 23 255 44 297 q 65 340 106 375 q 138 402 177 417 q 217 431 257 431 q 330 431 374 399 q 419 368 419 318 q 419 289 402 273 q 386 257 356 257 q 326 257 308 274 q 291 291 291 320 q 291 342 308 362 q 324 381 324 384 q 324 397 306 406 q 288 415 259 415 q 207 415 186 382 q 165 349 165 261 l 165 170 q 165 78 188 41 q 211 5 266 5 q 319 5 358 39 q 396 73 411 132 z"},"!":{"x_min":0,"x_max":333,"ha":333,"o":"m 175 185 l 157 185 l 157 206 q 157 341 137 430 q 116 520 74 572 q 112 593 135 620 q 157 647 167 683 q 175 648 198 621 q 221 594 260 572 q 216 519 196 428 q 175 336 175 196 z m 95 61 q 95 91 116 111 q 137 132 167 132 q 197 132 217 111 q 238 91 238 61 q 238 30 217 9 q 197 -12 167 -12 q 137 -12 116 9 q 95 30 95 61 z"},"/":{"x_min":0,"x_max":278,"ha":278,"o":"m 3 -93 l -27 -93 l 248 676 l 278 676 z"},"[":{"x_min":0,"x_max":352,"ha":352,"o":"m 321 667 l 321 652 l 192 652 l 192 -191 l 321 -191 l 321 -206 l 97 -206 l 97 667 z"},"6":{"x_min":0,"x_max":532,"ha":532,"o":"m 275 389 q 255 389 234 376 q 213 363 199 341 q 186 320 180 288 q 175 256 175 176 q 175 85 198 43 q 222 1 272 1 q 317 1 335 33 q 353 66 353 162 q 353 312 336 351 q 319 389 275 389 z m 445 669 l 445 656 q 312 648 248 572 q 185 496 183 342 q 202 378 233 396 q 264 414 306 414 q 383 414 434 356 q 486 297 486 210 q 486 116 422 51 q 357 -14 265 -14 q 170 -14 107 59 q 45 132 45 246 q 45 329 79 409 q 113 489 176 554 q 230 611 299 640 q 367 669 445 669 z"},"r":{"x_min":0,"x_max":398,"ha":398,"o":"m 69 404 l 12 404 l 12 419 l 90 419 q 124 419 150 422 q 177 425 200 431 l 200 345 q 218 386 247 408 q 277 431 312 431 q 351 431 372 411 q 394 391 394 355 q 394 324 375 305 q 357 285 328 285 q 299 285 280 304 q 261 324 261 353 q 261 365 265 377 q 269 390 278 403 q 244 395 222 359 q 201 324 201 274 l 201 15 l 278 15 l 278 0 l 12 0 l 12 15 l 69 15 z"},"2":{"x_min":0,"x_max":532,"ha":532,"o":"m 24 0 q 58 86 201 223 q 223 243 234 254 q 287 305 308 354 q 329 403 329 473 q 329 556 295 603 q 260 650 199 650 q 146 650 105 618 q 63 585 63 548 q 63 536 72 530 q 82 523 99 523 q 103 523 109 524 q 116 525 119 525 q 144 525 160 508 q 177 491 177 467 q 177 439 157 420 q 137 402 106 402 q 69 402 47 429 q 25 457 25 502 q 25 575 82 622 q 139 669 231 669 q 332 669 398 610 q 465 551 465 463 q 465 403 435 355 q 406 307 343 265 q 316 247 233 205 q 150 163 122 122 l 447 122 q 451 151 455 173 q 459 195 462 212 l 476 212 q 467 171 462 118 q 457 65 455 0 z"},"{":{"x_min":0,"x_max":500,"ha":500,"o":"m 415 712 q 353 711 329 686 q 306 660 306 583 l 306 516 q 306 406 279 366 q 251 326 177 310 q 251 294 279 254 q 306 214 306 104 l 306 37 q 306 -40 329 -65 q 352 -90 415 -91 l 415 -119 l 410 -119 q 302 -119 261 -83 q 220 -47 220 50 l 220 148 q 220 227 192 257 q 164 288 87 294 l 87 327 q 165 334 192 364 q 220 394 220 473 l 220 571 q 220 668 261 704 q 303 740 415 740 z"},"9":{"x_min":0,"x_max":532,"ha":532,"o":"m 256 266 q 275 266 297 280 q 318 293 331 314 q 343 333 349 364 q 354 395 354 462 q 354 565 332 610 q 310 655 261 655 q 213 655 194 623 q 176 590 176 494 q 176 339 193 302 q 210 266 256 266 z m 85 -14 l 85 0 q 218 7 282 83 q 345 159 347 313 q 328 277 297 259 q 266 241 224 241 q 147 241 95 300 q 43 358 43 445 q 43 539 107 604 q 172 669 264 669 q 359 669 422 596 q 484 522 484 409 q 484 326 450 246 q 416 167 353 101 q 298 44 231 15 q 163 -14 85 -14 z"}," ":{"x_min":0,"x_max":266,"ha":266,"o":""},"I":{"x_min":0,"x_max":333,"ha":333,"o":"m 319 667 l 319 652 l 241 652 l 241 15 l 319 15 l 319 0 l 14 0 l 14 15 l 93 15 l 93 652 l 14 652 l 14 667 z"},"H":{"x_min":0,"x_max":727,"ha":727,"o":"m 14 0 l 14 15 l 88 15 l 88 652 l 14 652 l 14 667 l 317 667 l 317 652 l 236 652 l 236 361 l 491 361 l 491 652 l 410 652 l 410 667 l 713 667 l 713 652 l 639 652 l 639 15 l 713 15 l 713 0 l 410 0 l 410 15 l 491 15 l 491 346 l 236 346 l 236 15 l 317 15 l 317 0 z"},"4":{"x_min":0,"x_max":532,"ha":532,"o":"m 292 265 l 292 544 l 84 265 z m 210 0 l 210 15 l 292 15 l 292 184 l 29 184 l 29 221 l 357 662 l 419 662 l 419 265 l 486 265 l 486 184 l 419 184 l 419 15 l 498 15 l 498 0 z"},"~":{"x_min":0,"x_max":833,"ha":833,"o":"m 747 293 q 697 258 651 241 q 604 224 561 224 q 540 224 516 228 q 492 232 468 241 q 456 245 431 254 q 327 290 275 290 q 235 290 190 271 q 145 253 87 212 l 87 303 q 139 338 186 356 q 232 373 276 373 q 306 373 337 367 q 368 361 419 344 q 426 342 440 336 q 520 308 562 308 q 604 308 648 326 q 693 344 747 383 z"},"D":{"x_min":0,"x_max":713,"ha":713,"o":"m 14 0 l 14 15 l 88 15 l 88 652 l 14 652 l 14 667 l 329 667 q 500 667 591 580 q 683 493 683 333 q 683 173 591 87 q 499 0 329 0 z m 236 15 l 315 15 q 432 15 478 82 q 523 149 523 333 q 523 518 478 585 q 432 652 315 652 l 236 652 z"},"^":{"x_min":0,"x_max":1000,"ha":1000,"o":"m 552 714 l 797 438 l 746 438 l 499 632 l 252 438 l 201 438 l 447 714 z"},"0":{"x_min":0,"x_max":532,"ha":532,"o":"m 266 1 q 318 1 339 69 q 360 136 360 316 q 360 517 339 585 q 319 654 266 654 q 214 654 193 586 q 172 518 172 327 q 172 137 193 69 q 213 1 266 1 z m 29 327 q 29 398 45 457 q 61 515 94 564 q 130 617 173 643 q 216 669 266 669 q 316 669 359 643 q 402 617 438 564 q 471 515 487 457 q 503 398 503 327 q 503 254 487 197 q 471 140 438 91 q 402 38 359 12 q 316 -14 266 -14 q 215 -14 172 12 q 129 39 94 91 q 61 140 45 198 q 29 256 29 327 z"},"F":{"x_min":0,"x_max":556,"ha":556,"o":"m 19 0 l 19 15 l 97 15 l 97 652 l 19 652 l 19 667 l 532 667 l 532 484 l 520 484 q 510 576 467 614 q 423 652 325 652 l 245 652 l 245 352 l 296 352 q 344 352 371 385 q 397 418 397 479 l 397 488 l 412 488 l 412 200 l 397 200 l 397 209 q 397 270 370 303 q 344 337 296 337 l 245 337 l 245 15 l 324 15 l 324 0 z"},"`":{"x_min":0,"x_max":500,"ha":500,"o":"m 345 485 l 301 485 l 148 566 q 120 581 111 592 q 102 603 102 618 q 102 638 114 650 q 126 662 146 662 q 161 662 177 653 q 192 644 212 623 z"},"k":{"x_min":0,"x_max":556,"ha":556,"o":"m 225 201 l 206 184 l 206 15 l 255 15 l 255 0 l 16 0 l 16 15 l 74 15 l 74 652 l 16 652 l 16 667 l 94 667 q 131 667 158 670 q 185 672 206 678 l 206 205 l 355 335 q 371 349 379 358 q 386 368 386 375 q 386 390 373 396 q 360 402 318 404 l 318 419 l 533 419 l 533 404 q 498 403 456 382 q 415 361 365 317 l 325 281 l 498 15 l 552 15 l 552 0 l 294 0 l 294 15 l 341 15 z"},"u":{"x_min":0,"x_max":556,"ha":556,"o":"m 354 404 l 296 404 l 296 419 l 375 419 q 409 419 436 422 q 463 425 486 431 l 486 15 l 544 15 l 544 0 l 360 0 l 360 81 q 333 35 294 11 q 255 -12 206 -12 q 141 -12 104 21 q 67 55 67 113 l 67 404 l 9 404 l 9 419 l 87 419 q 121 419 149 422 q 176 425 199 431 l 199 92 q 199 50 210 35 q 222 19 249 19 q 294 19 324 55 q 354 92 354 149 z"},"]":{"x_min":0,"x_max":352,"ha":352,"o":"m 31 667 l 255 667 l 255 -206 l 31 -206 l 31 -191 l 160 -191 l 160 652 l 31 652 z"},"U":{"x_min":0,"x_max":667,"ha":667,"o":"m 81 652 l 2 652 l 2 667 l 308 667 l 308 652 l 229 652 l 229 245 q 229 173 235 142 q 242 111 257 89 q 278 57 313 40 q 348 22 390 22 q 428 22 461 35 q 495 49 517 73 q 542 101 553 141 q 564 181 564 275 l 564 553 q 564 618 547 635 q 529 651 481 652 l 481 667 l 669 667 l 669 652 q 621 651 603 634 q 586 617 586 553 l 586 275 q 586 173 574 132 q 562 90 535 58 q 504 22 454 3 q 403 -17 343 -17 q 293 -17 250 -5 q 207 8 172 32 q 122 67 102 112 q 81 158 81 243 z"},"o":{"x_min":0,"x_max":500,"ha":500,"o":"m 336 154 l 336 265 q 336 355 317 386 q 298 416 250 416 q 202 416 183 386 q 164 355 164 265 l 164 154 q 164 63 183 33 q 202 3 250 3 q 298 3 317 33 q 336 63 336 154 z m 23 209 q 23 253 42 294 q 60 335 95 369 q 129 400 167 416 q 205 431 250 431 q 295 431 334 416 q 373 400 405 369 q 440 335 458 294 q 477 253 477 209 q 477 165 459 124 q 440 84 405 50 q 372 19 334 3 q 295 -12 250 -12 q 155 -12 89 52 q 23 117 23 209 z"},"N":{"x_min":0,"x_max":676,"ha":676,"o":"m 207 667 l 568 199 l 568 553 q 568 618 550 634 q 533 651 485 652 l 485 667 l 673 667 l 673 652 q 624 650 607 634 q 590 617 590 553 l 590 -16 l 554 -16 l 109 569 l 109 114 q 109 50 126 33 q 143 17 192 15 l 192 0 l 4 0 l 4 15 q 52 16 70 33 q 87 49 87 114 l 87 597 l 42 652 l 8 652 l 8 667 z"},"+":{"x_min":0,"x_max":833,"ha":833,"o":"m 458 596 l 458 339 l 709 339 l 709 258 l 458 258 l 458 0 l 375 0 l 375 258 l 124 258 l 124 339 l 375 339 l 375 596 z"},"G":{"x_min":0,"x_max":664,"ha":664,"o":"m 389 208 l 389 223 l 654 223 l 654 208 l 599 208 l 599 65 q 559 25 498 4 q 438 -17 365 -17 q 213 -17 123 78 q 33 173 33 332 q 33 415 60 481 q 86 547 141 600 q 184 642 235 662 q 286 683 345 683 q 396 683 452 660 q 508 637 519 637 q 533 637 541 644 q 548 650 553 666 l 568 666 l 568 446 l 553 446 q 525 550 469 609 q 413 669 344 669 q 265 669 229 588 q 192 508 192 333 q 192 248 198 190 q 204 133 216 104 q 237 53 272 26 q 307 -2 351 -2 q 375 -2 395 6 q 415 15 430 30 q 446 47 453 66 q 460 85 460 123 l 460 137 l 460 208 z"},"q":{"x_min":0,"x_max":551,"ha":551,"o":"m 350 128 l 350 268 q 350 336 323 373 q 297 410 248 410 q 202 410 183 369 q 164 328 164 218 q 164 95 183 52 q 201 9 247 9 q 287 9 319 45 q 350 81 350 128 z m 350 -226 l 350 63 q 331 27 301 8 q 271 -11 233 -11 q 144 -11 83 51 q 23 113 23 206 q 23 299 83 365 q 142 431 226 431 q 269 431 302 410 q 335 390 356 350 l 356 431 q 377 425 402 422 q 426 419 461 419 l 539 419 l 539 404 l 481 404 l 481 -226 l 539 -226 l 539 -241 l 294 -241 l 294 -226 z"},"d":{"x_min":0,"x_max":551,"ha":551,"o":"m 350 652 l 292 652 l 292 667 l 370 667 q 407 667 433 670 q 459 672 481 678 l 481 15 l 539 15 l 539 0 l 461 0 q 426 0 402 -3 q 377 -6 356 -12 l 356 69 q 335 29 302 9 q 269 -12 226 -12 q 142 -12 83 54 q 23 120 23 213 q 23 306 83 368 q 144 430 233 430 q 271 430 301 411 q 331 392 350 356 z m 350 291 q 350 338 319 374 q 287 410 247 410 q 201 410 183 367 q 164 324 164 201 q 164 92 183 50 q 202 9 248 9 q 297 9 323 46 q 350 83 350 151 z"},"1":{"x_min":0,"x_max":532,"ha":532,"o":"m 144 0 l 144 16 l 228 16 l 228 476 q 228 510 220 525 q 212 540 195 540 q 179 540 152 526 q 125 513 75 480 l 64 496 q 148 544 208 586 q 267 628 300 662 l 363 662 l 363 16 l 435 16 l 435 0 z"},"5":{"x_min":0,"x_max":532,"ha":532,"o":"m 82 320 l 69 325 q 87 366 96 418 q 106 471 106 531 q 106 561 103 590 q 101 620 95 652 q 117 657 141 660 q 164 662 189 662 q 251 662 319 647 q 387 633 393 633 q 405 633 413 639 q 421 646 426 659 l 436 657 q 434 595 400 564 q 367 532 303 532 q 275 532 219 542 q 163 551 134 551 l 119 551 q 120 544 120 537 q 120 530 120 515 q 120 476 114 438 q 108 401 97 367 q 121 395 152 408 q 184 421 229 421 q 275 421 317 407 q 359 394 396 368 q 438 338 459 300 q 479 263 479 215 q 479 118 403 52 q 327 -14 213 -14 q 131 -14 76 28 q 21 71 21 131 q 21 168 41 190 q 61 213 94 213 q 123 213 138 196 q 154 180 154 149 q 154 130 146 115 q 139 101 127 94 q 121 91 99 86 q 76 81 76 68 q 76 46 114 25 q 152 5 203 5 q 273 5 307 52 q 341 100 341 198 q 341 297 305 349 q 269 401 199 401 q 156 401 125 379 q 94 358 82 320 z"}}}
